<?xml version="1.0" encoding="UTF-8"?>
<svg id="uuid-6d64ce08-607c-494a-ad03-365f0927d704" data-name="uuid-e10e8da2-e044-49d5-9be7-de8ea0cab88a" xmlns="http://www.w3.org/2000/svg" width="200" height="101" viewBox="0 0 200 101">
  <path d="m1,98.9h17V27.9H1v71ZM9,19c5,0,9-4,9-9S14,1,9,1,0,5,0,10s4,9,9,9ZM73,1c-28,0-45,19-45,50s18,50,45,50,45-19,45-50S100,1,73,1Zm0,15c17,0,27,14,27,35s-11,35-28,35-28-14-28-35c1-21.1,11-35,29-35Zm52,56c1,18,15,29,37,29s38-12,38-30c0-14-8-22-28-27l-11-3c-12-3-17-7-17-13,0-8,7-13,18-13s18,5,19,14h16c0-17-14-29-35-29s-36,12-36,29c0,14,8,22,26,26l12,3c12,3,17,7,17,14,0,8-8,14-20,14s-21-6-22-15l-14,1h0Z" style="fill: #606060;"/>
</svg>