<?xml version="1.0" encoding="UTF-8"?>
<svg id="uuid-9c515e6b-f37f-42a0-b213-abe41ce01343" data-name="uuid-78a77507-7873-4d40-bc9d-18199800436c" xmlns="http://www.w3.org/2000/svg" width="200" height="113.44" viewBox="0 0 200 113.44">
  <path d="m146,85.34c-2,0-3,0-5-1-1-1-2-2-3-4s-1-3,0-5,1-3,2-4,3-2,4-2h5c2,1,3,2,4,3s1,3,1,5-1,4-2,6c-2,1-4,2-6,2Zm-92,0c-2,0-3,0-5-1-1-1-2-2-3-4s-1-3,0-5,1-3,2-4,3-2,4-2h5c2,1,3,2,4,3s1,3,1,5-1,4-2,6c-2,1-4,2-6,2Zm95-49.9l17-29v-2s0-1-1-1l-1-1h-2s-1,0-1,1l-1,1-17,29c-13-6-28-9-43-9s-29,2-43,8L40,2.44c0-1-1-1-2-2s-2,0-3,0-1,1-2,2v3l17,29c-14,8-27,19-35,33S1,97.44,0,113.44h200c-1-16-7-32-16-46-8-13.1-21-24-35-32" style="fill: #606060;"/>
</svg>